<svg width="121" height="50" viewBox="0 0 121 50" fill="none" xmlns="http://www.w3.org/2000/svg">
<g clip-path="url(#clip0)">
<path d="M45.4034 40.2157C44.0022 40.4608 43.228 38.9804 43.4293 37.0197C43.5996 35.3824 44.4744 33.3922 45.1015 32.1079C44.366 32.9412 43.5918 33.353 42.988 33.4903C42.2757 37.255 40.8589 41.1765 38.9389 41.6079C37.7157 41.8824 36.477 40.3432 36.988 37.4804C37.197 36.2648 37.708 34.1177 38.2499 32.1569C37.646 32.2648 37.197 32.0295 36.988 31.7648C36.7789 31.5001 36.8486 31.2942 37.1273 31.255C37.7157 31.1667 38.188 30.9903 38.6215 30.853C39.0086 29.451 39.357 28.255 39.6125 27.6667C39.7286 27.304 39.9144 27.2844 40.0538 27.5687C40.3402 28.1471 40.4331 28.9608 40.1699 30.2942C40.7583 30.2059 41.1609 30.5295 41.3776 30.8628C41.5247 31.0981 41.4473 31.2255 41.1686 31.2648C40.797 31.3236 40.3402 31.4216 39.8525 31.5785C39.357 33.3138 38.606 35.7746 38.1802 37.8726C37.8009 39.7452 38.2499 41.1079 39.0009 40.9118C40.0925 40.6177 41.6176 37.3432 42.2525 33.5001C40.7815 33.1079 42.1441 29.5785 42.8873 29.3726C43.4834 29.1961 43.4989 30.6667 43.2202 32.2844C43.8473 32.0687 44.4744 31.5295 45.0628 30.7746C45.2718 30.5099 45.388 30.4118 45.5893 30.6079C46.0073 31.0393 46.6267 31.9804 46.1931 32.8824C45.4886 34.3334 44.7918 36.0883 44.6525 37.3824C44.4976 38.7354 44.8693 39.6079 45.4189 39.5001C46.1776 39.3824 46.8976 37.6667 47.2615 35.7942C47.308 35.5883 47.4318 35.5197 47.5325 35.7354C47.6641 35.9903 47.7802 36.5687 47.6486 37.2648C47.3699 38.7648 46.4176 40.0295 45.4034 40.2157Z" fill="#07292F"/>
<path d="M51.1712 39.402C50.5828 42.7354 49.8009 46.755 48.3841 47.8432C48.059 48.0785 47.7106 48.1569 47.277 47.5883C46.8125 46.9804 46.3325 46.2452 46.5106 44.7942C46.7661 42.5883 48.1286 40.8432 49.8164 39.5393C49.9248 38.9706 50.0254 38.3432 50.1493 37.7452C49.6848 38.6079 49.0732 39.3726 48.3299 39.4608C46.9906 39.6177 46.7196 37.9314 46.9286 36.3138C47.1222 34.7452 47.7028 32.2452 48.6009 29.8922C48.7093 29.6079 48.8951 29.5883 49.0577 29.7942C49.5996 30.4412 49.6228 31.4314 49.1351 32.951C48.6628 34.4412 48.3919 35.4805 48.1983 36.6471C47.9893 37.8628 48.1364 38.6667 48.5699 38.6177C49.2899 38.5295 50.0022 36.8432 50.6525 34.6177C51.2022 32.7256 51.6977 30.4706 52.1699 29.1373C52.2938 28.804 52.4177 28.7256 52.6035 28.8726C52.9209 29.2354 53.1996 30.1961 52.8899 31.4805C52.5261 32.951 51.7983 35.9804 51.3415 38.402C52.6344 37.1079 53.5325 35.5491 54.0822 34.1079C54.1519 33.9216 54.3144 33.8628 54.3841 34.0883C54.4461 34.2942 54.4693 34.8334 54.2448 35.5099C53.7415 37.1079 52.5802 38.2746 51.1712 39.402ZM47.5325 46.7157C47.8344 47.0981 48.9802 44.2452 49.6383 40.5785C47.5015 42.853 47.1222 46.2059 47.5325 46.7157Z" fill="#07292F"/>
<path d="M61.0809 36.5687C60.1131 36.7844 59.4009 36.304 58.9286 35.353C58.8357 35.8726 58.7041 36.4804 58.6112 37.0001C58.5725 37.2452 58.4641 37.2942 58.3247 37.1373C57.9841 36.7353 57.7131 36.1079 57.8757 34.6079C58.1002 32.5785 60.4925 23.1961 61.4447 20.6961C61.5686 20.3628 61.7157 20.3236 61.9093 20.6177C62.2731 21.2059 62.4202 22.2451 61.9093 24.1569C61.7234 24.8628 61.1583 26.6373 60.7712 28.0393C61.2202 27.3138 61.7312 26.8236 62.2112 26.7157C63.7673 26.3726 64.2241 29.0883 63.6047 32.1373C63.0938 34.755 62.1415 36.3334 61.0809 36.5687ZM60.8718 28.9412C60.1983 30.2157 59.5867 32.3334 59.1609 34.2648C59.2925 34.9314 59.6331 35.6177 60.1441 35.6471C60.8099 35.6863 61.5531 34.804 62.2422 31.8824C62.9234 29.0295 62.5054 27.6667 62.0796 27.7157C61.6847 27.755 61.3209 28.1079 60.8718 28.9412Z" fill="#07292F"/>
<path d="M67.2976 34.6079C68.8305 34.3628 69.9067 32.2059 70.4796 30.5001C70.5415 30.2942 70.6886 30.2648 70.797 30.451C70.8976 30.6177 70.9286 31.2844 70.6886 31.9608C70.1157 33.5491 68.8538 34.9314 67.4525 35.2648C65.1376 35.8334 63.9221 33.1177 64.6963 29.8628C65.4705 26.6079 67.166 24.9903 68.1802 25.451C68.6834 25.6961 69.0628 25.9706 69.4267 26.4118C69.837 26.8922 69.8834 28.3432 69.2796 29.6961C68.575 31.2844 67.437 32.1667 65.966 31.1275C65.6796 33.3922 66.3221 34.755 67.2976 34.6079ZM68.0796 28.9412C68.5286 27.8334 68.7609 26.5393 68.4744 26.3432C68.0331 26.0393 66.7092 27.7648 66.1596 30.1569C66.1209 30.304 66.0899 30.4608 66.0667 30.5785C67.0576 31.0981 67.6692 29.9314 68.0796 28.9412Z" fill="#07292F"/>
<path d="M72.4228 25.7451C72.3918 24.8236 72.508 24.3432 72.8331 23.8138C73.1738 23.2648 73.5764 23.0785 73.7699 23.2451C73.9867 23.4314 73.9325 23.7157 73.7622 24.2942C73.708 24.451 73.6693 24.5981 73.6228 24.7746C73.7931 26.9314 74.3893 28.6667 74.5596 30.2746C74.6525 31.1863 74.6525 32.1863 74.0718 32.8922C75.2177 32.0393 75.7906 30.4804 76.077 29.1275C76.1312 28.853 76.3248 28.8824 76.4254 29.0491C76.526 29.2451 76.5957 29.8432 76.3789 30.6373C75.9067 32.3922 74.7841 33.5491 73.4989 33.9118C72.446 34.1961 71.3699 34.0785 70.5493 32.7844C69.9686 31.8432 69.806 30.2942 70.3402 29.5099C70.526 29.2255 70.6886 29.2844 70.7583 29.6569C70.8047 29.8432 70.828 30.0295 70.8744 30.2059C71.4396 28.7353 72.0589 27.0491 72.4228 25.7451ZM71.2151 31.4118C71.6796 32.6961 72.3377 33.5295 72.9106 33.1569C73.708 32.6471 72.926 29.0687 72.5931 27.2255C72.237 28.5785 71.7338 30.0099 71.2151 31.4118Z" fill="#07292F"/>
<path d="M75.9764 23.0687C75.7518 22.7844 75.837 22.5981 76.1157 22.5589C76.6344 22.4706 77.1376 22.304 77.6254 22.1275C78.0125 20.7255 78.3763 19.5197 78.6163 18.9412C78.7402 18.6079 78.926 18.5883 79.0576 18.8432C79.3518 19.451 79.4525 20.2157 79.1815 21.5099C79.8938 21.3236 80.2267 21.6863 80.4125 21.951C80.5828 22.1961 80.5286 22.3824 80.2576 22.4412C79.8473 22.4608 79.2899 22.6569 78.8409 22.853C78.3454 24.5687 77.6099 27.0491 77.1918 29.1471C76.8202 30.9706 77.2228 32.3628 77.997 32.2353C78.8254 32.0981 79.6383 30.2157 80.0796 28.3334C80.1492 28.0295 80.3428 27.9412 80.4667 28.2451C80.606 28.5981 80.5751 29.0295 80.4667 29.6079C80.3196 30.3334 79.3983 32.6373 77.9273 32.902C76.7118 33.1275 75.5041 31.6275 76.0151 28.7648C76.2396 27.5197 76.7351 25.402 77.2693 23.3922C76.6267 23.5393 76.1544 23.2844 75.9764 23.0687Z" fill="#07292F"/>
<path d="M88.6189 20.7648C89.246 20.6471 89.7415 21.804 89.6486 22.8726C90.3763 21.5883 91.4525 20.2255 92.0563 20.1177C92.7222 19.9902 93.0551 21.3236 92.8538 22.5687C92.668 23.6863 91.9867 25.4118 91.6925 26.6765C91.3673 28.1079 91.7699 29.1177 92.4202 28.951C93.1712 28.7648 93.7751 27.0491 94.2628 25.2648C94.3247 25.0393 94.4718 25 94.588 25.1471C94.7041 25.2942 94.7505 26.0687 94.6267 26.6471C94.3015 28.0785 93.2873 29.5 92.2267 29.7353C90.6318 30.0883 89.8267 28.6177 90.237 26.5687C90.6473 24.4902 91.917 21.5393 91.6228 21.4804C91.468 21.4412 90.8796 21.8334 89.9041 23.6079C88.6499 25.8726 88.0692 28.2942 87.6047 30.6471C87.5351 30.951 87.3957 31.0491 87.2021 30.853C86.846 30.5785 86.4589 29.7255 86.7609 27.9412C87.0938 25.8824 88.6267 22.2451 88.2396 22.1667C88.0073 22.0981 87.1944 22.9216 86.2499 24.8138C85.3751 26.5393 84.7944 28.8922 84.3686 31.2353C84.3221 31.4608 84.2292 31.5785 84.0357 31.4314C83.5712 31.0785 83.3699 30.3334 83.517 29.0883C83.6951 27.5393 84.5776 23.9804 85.4292 21.5393C85.5221 21.2549 85.6692 21.2451 85.8163 21.451C86.2189 22.0295 86.2886 22.951 86.1415 23.9314C86.7686 22.5687 87.9531 20.8922 88.6189 20.7648Z" fill="#07292F"/>
<path d="M99.837 18.4314C99.9609 18.0981 100.1 18.0099 100.255 18.1961C100.588 18.5491 100.874 19.5197 100.596 20.7746C100.34 21.9118 99.6667 23.853 99.3957 25.1765C99.117 26.5785 99.2409 27.5785 99.8525 27.3922C100.596 27.1765 101.385 25.3726 101.803 23.6373C101.865 23.4118 101.989 23.353 102.09 23.5491C102.191 23.7452 102.276 24.3236 102.129 25.0197C101.827 26.402 100.851 27.9314 99.837 28.0883C98.8383 28.2354 98.2267 27.6079 98.0718 26.5197C97.6151 27.5981 96.9105 28.6373 96.0357 28.8334C94.3325 29.2157 93.5738 26.353 94.7041 23.2059C95.8034 20.1373 97.1041 18.7746 98.0176 18.5687C98.8073 18.3922 99.2796 19.0785 99.3647 19.9903C99.5351 19.3824 99.6899 18.8432 99.837 18.4314ZM98.5054 19.7059C97.9092 19.7648 96.7867 21.5687 96.0667 23.8628C95.3776 26.0687 95.4241 28.1667 96.1363 28.0295C96.8873 27.8824 97.6383 26.1863 98.2809 23.9412C99.0783 21.1275 99.0473 19.6569 98.5054 19.7059Z" fill="#07292F"/>
<path d="M101.703 17.3236C101.478 17.0393 101.563 16.853 101.842 16.8138C102.361 16.7255 102.864 16.5589 103.352 16.3824C103.739 14.9804 104.103 13.7746 104.343 13.1961C104.467 12.8628 104.652 12.8432 104.784 13.0981C105.078 13.7059 105.179 14.4706 104.908 15.7648C105.62 15.5785 105.953 15.9412 106.139 16.2059C106.309 16.4608 106.255 16.6373 105.984 16.6961C105.574 16.7157 105.016 16.9118 104.567 17.1079C104.072 18.8236 103.336 21.304 102.918 23.402C102.547 25.2255 102.949 26.6177 103.723 26.4903C104.552 26.353 105.365 24.4706 105.806 22.5883C105.876 22.2844 106.069 22.1961 106.193 22.5001C106.34 22.853 106.302 23.2844 106.193 23.8628C106.046 24.5883 105.125 26.8922 103.654 27.1569C102.438 27.3824 101.231 25.8824 101.742 23.0197C101.966 21.7746 102.462 19.6569 102.996 17.6471C102.353 17.7942 101.881 17.5393 101.703 17.3236Z" fill="#07292F"/>
<path d="M110.312 17.402C110.831 18.2942 110.273 19.6863 110.08 21.0197C110.049 21.3138 109.979 21.402 109.723 21.2942C109.243 21.1177 108.895 20.4804 109.003 19.3726C109.089 18.4902 109.499 17.3726 109.205 17.1765C108.849 16.9216 107.68 18.7059 107.153 21C106.511 23.8432 107.161 25.6765 108.245 25.4608C109.785 25.1373 110.846 22.9902 111.388 21.3628C111.45 21.1569 111.612 21.0981 111.721 21.3138C111.798 21.4902 111.806 22.0785 111.589 22.7746C111.086 24.2942 109.793 25.7549 108.407 26.0883C106.092 26.6569 104.9 23.951 105.674 20.6961C106.441 17.5098 108.113 15.853 109.127 16.3432C109.677 16.6177 110.018 16.9216 110.312 17.402Z" fill="#07292F"/>
<path d="M116.196 24.3824C114.655 24.7255 114.074 23.402 114.345 21.255C114.64 18.8726 115.894 16.1079 115.569 15.9608C115.29 15.8334 113.509 17.853 112.758 20.2942C112.294 21.804 111.837 23.5785 111.597 25.0981C111.551 25.3236 111.434 25.3922 111.303 25.255C110.954 24.902 110.699 24.2942 110.885 22.8138C111.202 20.353 113.873 11.3432 115.027 8.67652C115.151 8.3628 115.336 8.34319 115.468 8.59809C115.801 9.21574 115.909 10.3824 115.414 12.0001C115.104 13.0197 114.392 15.1177 113.827 16.8432C114.446 15.7452 115.29 14.7746 115.793 14.7353C116.428 14.6863 117.156 15.7157 116.846 17.0099C116.583 18.1177 115.94 20.0099 115.692 21.304C115.422 22.755 115.662 23.8236 116.335 23.6177C117.078 23.402 117.852 21.5099 118.216 19.902C118.263 19.6765 118.441 19.6373 118.542 19.804C118.665 20.0393 118.735 20.5197 118.557 21.2844C118.224 22.7353 117.272 24.1373 116.196 24.3824Z" fill="#07292F"/>
<path d="M1.87055 37.2549L1.917 10.6275C2.26539 10.1177 2.86926 10.0687 3.27184 10.5197L8.17248 15.951C10.5725 11.6961 16.7893 3.17651 28.046 3.17651C41.4783 3.17651 49.0964 17.8432 49.0964 17.8432L49.8164 18.9902C49.8164 18.9902 41.068 10.5098 30.9725 15.0098C24.3609 17.951 21.0164 23.9216 19.3751 28.3628L24.1209 33.6275C24.5235 34.0785 24.5699 34.8628 24.2293 35.3726L3.49635 39.2451C2.90797 39.402 2.46668 39.6569 2.0641 39.2059C1.66151 38.7549 1.85506 38.0589 1.87055 37.2549Z" fill="#FF9F00"/>
</g>
<defs>
<clipPath id="clip0">
<rect width="120" height="50" fill="white" transform="translate(0.5)"/>
</clipPath>
</defs>
</svg>
